# xmcd CD database file
#
# Track frame offsets:
#	150
#	27297
#	49910
#	66087
#	85492
#	95467
#	121380
#	141152
#
# Disc length: 2276 seconds
#
# Revision: 0
# Processed by: cddbd v1.5.1PL2 Copyright (c) Steve Scherf et al.
# Submitted via: CDex 1.51
#
DISCID=6d08e208
DTITLE=Kimiko Itoh - Birdland
DYEAR=1982
DGENRE=Jazz
TTITLE0=Birdland
TTITLE1=A child is born
TTITLE2=Confirmation
TTITLE3=My romance
TTITLE4=You are the sunshine of my life
TTITLE5=Misty
TTITLE6=No more blues
TTITLE7='Round Midnight
EXTD=YEAR: 1982
EXTT0=
EXTT1=
EXTT2=
EXTT3=
EXTT4=
EXTT5=
EXTT6=
EXTT7=
PLAYORDER=
